<?xml version="1.0" standalone="no"?>
<svg viewBox="0 0 200 200" xmlns="http://www.w3.org/2000/svg">
  <path fill="#9197AE" d="M16.9,-25C26.1,-24,40.7,-27.9,48.2,-24.6C55.7,-21.2,56.1,-10.6,48.5,-4.4C40.8,1.8,25.1,3.6,21.6,13.9C18.1,24.1,26.9,42.9,25.3,44.3C23.7,45.7,11.9,29.8,-0.8,31.1C-13.4,32.5,-26.9,51.1,-38.5,55.5C-50.1,59.9,-59.9,50.1,-58.9,38.5C-57.8,26.8,-45.9,13.4,-46.9,-0.5C-47.8,-14.5,-61.6,-29,-62.5,-40.4C-63.5,-51.9,-51.5,-60.2,-39,-59.3C-26.4,-58.3,-13.2,-48.1,-4.7,-40.1C3.9,-32,7.7,-26,16.9,-25Z" transform="translate(100 100)" />
</svg>
