<?xml version="1.0" standalone="no"?>
<svg viewBox="0 0 200 200" xmlns="http://www.w3.org/2000/svg">
  <path fill="#2274A5" d="M31.6,-42.8C38.3,-38.6,39.2,-25.9,40.8,-14.8C42.3,-3.7,44.4,5.7,42.6,14.7C40.9,23.7,35.3,32.4,27.6,45.7C19.9,59,9.9,77.1,0.9,75.9C-8.2,74.7,-16.4,54.3,-25.9,41.5C-35.4,28.8,-46.2,23.6,-56.7,13.2C-67.2,2.8,-77.5,-12.9,-72.8,-22.5C-68.1,-32.2,-48.4,-35.8,-33.8,-37.4C-19.1,-38.9,-9.6,-38.3,1.4,-40.3C12.5,-42.3,24.9,-46.9,31.6,-42.8Z" transform="translate(100 100)" />
</svg>
