<?xml version="1.0" standalone="no"?>
<svg viewBox="0 0 200 200" xmlns="http://www.w3.org/2000/svg">
  <path fill="#E63B2E" d="M7.2,-25.8C8.3,-11.7,7.6,-7.9,21.2,-5.3C34.9,-2.7,62.8,-1.3,65.1,1.4C67.5,4.1,44.4,8.2,37.3,22C30.1,35.8,39,59.4,35.5,68.1C31.9,76.8,16,70.7,0.1,70.5C-15.7,70.3,-31.4,76,-41.1,70.8C-50.8,65.6,-54.4,49.6,-50.7,35.9C-47,22.3,-35.9,11.2,-30.9,2.9C-25.9,-5.4,-27.1,-10.8,-30.1,-23.3C-33.2,-35.8,-38.2,-55.4,-33.5,-67.4C-28.8,-79.4,-14.4,-83.8,-5.7,-73.9C3,-64.1,6,-39.8,7.2,-25.8Z" transform="translate(100 100)" />
</svg>
