<?xml version="1.0" standalone="no"?>
<svg viewBox="0 0 200 200" xmlns="http://www.w3.org/2000/svg">
  <path fill="#9197AE" d="M29.2,-45.8C36.8,-46.1,41.2,-36.2,36.7,-26.9C32.2,-17.6,18.8,-8.8,16.6,-1.2C14.5,6.3,23.6,12.6,25.2,16.9C26.8,21.1,20.7,23.3,15.3,33.3C9.8,43.2,4.9,61,-0.8,62.3C-6.4,63.6,-12.9,48.6,-15.5,37C-18.2,25.4,-17,17.2,-24.5,11.7C-32,6.1,-48.1,3,-51.6,-2C-55,-7,-45.6,-14,-38.7,-20.6C-31.9,-27.3,-27.4,-33.6,-21.4,-34.1C-15.3,-34.7,-7.7,-29.4,1.6,-32.1C10.8,-34.8,21.6,-45.4,29.2,-45.8Z" transform="translate(100 100)" />
</svg>
